<svg version="1.1" id="Layer_1" xmlns="http://www.w3.org/2000/svg" xmlns:xlink="http://www.w3.org/1999/xlink" x="0px" y="0px"
	 width="100%" viewBox="0 0 430 396" enable-background="new 0 0 430 396" xml:space="preserve">
<path fill="#000000" opacity="1.000000" stroke="none" 
	d="
M286.000000,397.000000 
	C190.695358,397.000000 95.890732,397.000000 1.043047,397.000000 
	C1.043047,265.068665 1.043047,133.137299 1.043047,1.102964 
	C144.221252,1.102964 287.442596,1.102964 430.831970,1.102964 
	C430.831970,132.999817 430.831970,264.999908 430.831970,397.000000 
	C382.804016,397.000000 334.652008,397.000000 286.000000,397.000000 
M235.470047,167.025055 
	C235.304184,167.075897 235.138336,167.126740 234.227142,167.149872 
	C229.248871,169.167496 224.270615,171.185104 218.458801,173.213409 
	C217.981705,175.202393 217.082657,177.197372 217.110748,179.179199 
	C217.180527,184.103760 217.957809,189.024323 217.923111,193.942764 
	C217.880798,199.940216 217.298676,205.933853 216.199402,212.019379 
	C208.794418,209.338333 201.389450,206.657288 193.693130,203.184097 
	C193.471176,193.807755 193.249237,184.431412 193.655289,174.703613 
	C195.166626,174.066254 196.654083,173.363510 198.192978,172.801697 
	C212.813477,167.464142 227.451935,162.175705 242.066010,156.820694 
	C251.100342,153.510269 260.101440,150.109085 269.681732,147.237686 
	C269.787659,149.932571 269.982178,152.627350 269.985413,155.322357 
	C270.010559,176.168320 270.055267,197.014633 269.949860,217.860092 
	C269.929169,221.948624 269.283325,226.033981 268.101685,230.053055 
	C263.048187,228.696945 257.885803,227.645477 252.974899,225.890442 
	C248.886734,224.429428 247.876602,225.813858 247.953888,229.590973 
	C248.062851,234.916824 247.701172,240.270111 248.140335,245.561890 
	C248.297089,247.450684 249.805908,250.257126 251.368759,250.837616 
	C264.721466,255.797104 278.228577,260.340942 291.826813,265.124664 
	C291.826813,265.124664 291.942139,264.987122 292.304871,265.724762 
	C296.560516,266.582611 294.927612,263.255768 294.933258,261.644592 
	C295.028564,234.531723 295.004364,207.418442 295.005432,180.305237 
	C295.006348,157.357956 295.005646,134.410675 295.005646,110.738914 
	C293.660583,111.312851 292.771240,111.692345 291.222748,112.018730 
	C290.132568,112.670929 289.042358,113.323135 288.006104,113.994080 
	C288.006104,113.994080 287.992218,113.938705 287.269745,113.984787 
	C286.787048,114.020439 286.304382,114.056091 285.096680,114.099655 
	C271.755981,119.122978 258.415283,124.146309 244.193954,128.986298 
	C243.795319,127.555405 243.057922,126.126358 243.050064,124.693321 
	C242.963928,108.964310 243.018799,93.234550 242.942062,77.505447 
	C242.935120,76.080055 242.280014,74.657822 241.185471,73.075928 
	C237.774368,74.708664 234.363251,76.341400 231.003830,77.998360 
	C231.003830,77.998360 230.998322,77.941551 230.380951,77.995949 
	C229.899017,78.317535 229.417099,78.639122 228.996826,78.982735 
	C228.996826,78.982735 228.965942,78.925003 228.299408,79.010338 
	C227.176926,79.658913 226.054443,80.307487 224.991882,80.979790 
	C224.991882,80.979790 224.985306,80.915680 224.379929,81.002365 
	C223.910767,81.331314 223.441605,81.660263 223.005798,82.003143 
	C223.005798,82.003143 222.993988,81.968925 222.473816,82.047714 
	C222.305328,82.096283 222.136826,82.144852 221.281006,82.371933 
	C218.872910,83.430359 216.428070,84.413033 214.062790,85.559784 
	C200.978806,91.903214 187.924042,98.306915 174.840286,104.650787 
	C160.656647,111.527962 146.452179,118.362160 131.510498,125.142914 
	C131.185837,125.516151 130.575684,125.890602 130.577240,126.262466 
	C130.685516,151.826080 130.822235,177.389679 131.045074,202.952499 
	C131.059036,204.552628 131.779419,206.146606 132.772964,208.162003 
	C158.290192,217.412033 183.805527,226.667252 209.327621,235.903854 
	C211.786865,236.793854 215.252731,236.867844 216.502655,238.589890 
	C217.793396,240.368164 216.975967,243.695847 217.033066,246.346756 
	C217.206863,254.416321 217.358521,262.486359 217.517151,270.556274 
	C217.645325,277.076630 217.865204,283.597229 217.852707,290.117340 
	C217.847534,292.815979 216.191803,293.574646 213.819946,292.390808 
	C207.097610,289.035583 200.402985,285.624786 193.865967,281.659882 
	C193.587311,281.409454 193.308640,281.159058 193.021194,280.974457 
	C193.021194,280.974457 193.085800,280.959076 193.040588,280.028137 
	C193.028229,267.466370 193.050323,254.904343 192.955032,242.343201 
	C192.944427,240.945770 192.265503,239.553406 191.278519,238.063889 
	C190.863571,238.023926 190.448608,237.983978 189.993439,237.986572 
	C189.993439,237.986572 190.047470,237.965286 189.778000,237.393631 
	C189.174469,237.314896 188.570923,237.236176 187.301834,236.820862 
	C180.964310,234.462326 174.626801,232.103790 168.171494,229.701416 
	C167.799438,232.281998 167.055969,234.974594 167.081360,237.659943 
	C167.255127,256.037689 167.735458,274.413910 167.735962,292.790619 
	C167.736038,296.002533 169.034866,296.918396 171.404922,298.108704 
	C178.746063,301.795715 185.891968,305.872040 193.238907,309.546783 
	C208.429779,317.144989 223.701553,324.581390 239.195206,332.572815 
	C240.121780,332.688416 241.048355,332.804016 242.768356,332.562500 
	C242.844879,331.905487 242.988281,331.248474 242.988419,330.591461 
	C243.000015,276.579468 243.006821,222.567459 242.956833,168.555511 
	C242.955826,167.453369 242.284470,166.351868 241.249573,165.105270 
	C240.791000,165.125229 240.332413,165.145172 239.271912,165.122147 
	C238.556717,165.455475 237.841522,165.788803 236.587875,166.166809 
	C236.371490,166.439407 236.155106,166.712006 235.998932,166.994019 
	C235.998932,166.994019 235.982620,166.935287 235.470047,167.025055 
z"/>
<path fill="#7E037F" opacity="1.000000" stroke="none" 
	d="
M193.984467,203.976227 
	C201.389450,206.657288 208.794418,209.338333 216.880005,212.037659 
	C218.050705,210.528656 218.939758,209.008514 218.967239,207.472946 
	C219.171677,196.051270 219.205200,184.626511 219.292343,173.202728 
	C224.270615,171.185104 229.248871,169.167496 234.734589,167.244614 
	C235.590530,167.399933 235.837387,167.265244 235.982620,166.935287 
	C235.982620,166.935287 235.998932,166.994019 236.186523,166.875336 
	C236.647018,166.571426 236.897751,166.359924 237.126328,166.122131 
	C237.841522,165.788803 238.556717,165.455475 239.687866,165.537598 
	C240.395920,167.748199 240.941681,169.543152 240.943176,171.338562 
	C240.986069,222.955582 240.996811,274.572693 240.885880,326.189484 
	C240.881653,328.155792 239.617233,330.119446 238.940063,332.084320 
	C223.701553,324.581390 208.429779,317.144989 193.238907,309.546783 
	C185.891968,305.872040 178.746063,301.795715 171.404922,298.108704 
	C169.034866,296.918396 167.736038,296.002533 167.735962,292.790619 
	C167.735458,274.413910 167.255127,256.037689 167.081360,237.659943 
	C167.055969,234.974594 167.799438,232.281998 168.171494,229.701416 
	C174.626801,232.103790 180.964310,234.462326 187.865601,237.155914 
	C188.968719,237.649063 189.508102,237.807175 190.047470,237.965286 
	C190.047470,237.965286 189.993439,237.986572 190.080109,238.380981 
	C190.433182,250.570282 190.661926,262.366211 190.998581,274.159088 
	C191.063751,276.442291 191.550400,278.713440 192.156250,281.095978 
	C192.675201,281.120911 192.880493,281.039978 193.085800,280.959076 
	C193.085800,280.959076 193.021194,280.974457 192.965622,281.214600 
	C193.172516,281.715088 193.434982,281.975494 193.697449,282.235870 
	C200.402985,285.624786 207.097610,289.035583 213.819946,292.390808 
	C216.191803,293.574646 217.847534,292.815979 217.852707,290.117340 
	C217.865204,283.597229 217.645325,277.076630 217.517151,270.556274 
	C217.358521,262.486359 217.206863,254.416321 217.033066,246.346756 
	C216.975967,243.695847 217.793396,240.368164 216.502655,238.589890 
	C215.252731,236.867844 211.786865,236.793854 209.327621,235.903854 
	C183.805527,226.667252 158.290192,217.412033 132.430634,207.504364 
	C132.144470,179.636169 132.200623,152.425644 132.256790,125.215103 
	C146.452179,118.362160 160.656647,111.527962 174.840286,104.650787 
	C187.924042,98.306915 200.978806,91.903214 214.062790,85.559784 
	C216.428070,84.413033 218.872910,83.430359 221.759857,82.364830 
	C222.586212,82.424126 222.837967,82.294525 222.993988,81.968925 
	C222.993988,81.968925 223.005798,82.003143 223.278412,81.941345 
	C224.029129,81.558250 224.507217,81.236961 224.985306,80.915680 
	C224.985306,80.915680 224.991882,80.979790 225.330017,80.976227 
	C226.767426,80.290108 227.866684,79.607559 228.965942,78.925003 
	C228.965942,78.925003 228.996826,78.982735 229.259872,78.924759 
	C230.014725,78.558380 230.506531,78.249969 230.998322,77.941559 
	C230.998322,77.941551 231.003830,77.998360 231.368881,77.990967 
	C234.507584,77.154022 237.281235,76.324478 240.675354,75.309357 
	C240.794724,77.704453 240.956894,79.473450 240.959335,81.242661 
	C240.979095,95.550224 240.932190,109.858032 241.011276,124.165176 
	C241.021942,126.094559 241.620636,128.020691 242.279968,130.029510 
	C243.433456,129.796997 244.254028,129.483322 245.074585,129.169632 
	C258.415283,124.146309 271.755981,119.122978 285.668457,114.248306 
	C286.824219,114.244209 287.408203,114.091454 287.992218,113.938705 
	C287.992218,113.938705 288.006104,113.994080 288.400848,113.991028 
	C293.176422,113.606842 292.979858,116.610023 292.979156,119.561592 
	C292.968170,165.779190 292.991699,211.996811 292.920502,258.214294 
	C292.916992,260.479889 292.118042,262.744202 291.689484,265.009125 
	C278.228577,260.340942 264.721466,255.797104 251.368759,250.837616 
	C249.805908,250.257126 248.297089,247.450684 248.140335,245.561890 
	C247.701172,240.270111 248.062851,234.916824 247.953888,229.590973 
	C247.876602,225.813858 248.886734,224.429428 252.974899,225.890442 
	C257.885803,227.645477 263.048187,228.696945 268.616974,230.376297 
	C269.761963,229.394211 270.935760,228.091049 270.940948,226.783249 
	C271.042145,201.390289 271.009857,175.996811 270.991302,150.603424 
	C270.990326,149.282440 270.867676,147.961563 270.801697,146.640625 
	C270.240265,146.676620 269.678864,146.712616 269.117432,146.748627 
	C260.101440,150.109085 251.100342,153.510269 242.066010,156.820694 
	C227.451935,162.175705 212.813477,167.464142 198.192978,172.801697 
	C196.654083,173.363510 195.166626,174.066254 193.062149,174.931488 
	C192.255920,175.465256 192.042847,175.771164 191.626282,176.427994 
	C191.553894,185.172958 191.684998,193.566986 191.901703,202.283234 
	C192.653015,203.062378 193.318741,203.519302 193.984467,203.976227 
M154.450287,142.752243 
	C154.319702,157.811676 154.161423,172.871017 154.120377,187.930695 
	C154.117615,188.943512 155.000473,189.958755 156.052811,190.971405 
	C156.621277,191.082397 157.189758,191.193375 158.236679,191.725342 
	C159.876862,192.241684 161.517059,192.758026 163.754532,193.590210 
	C165.080353,193.926620 166.406174,194.263046 168.162338,194.708649 
	C168.162338,182.363937 168.162338,170.666336 168.380127,158.321320 
	C170.562744,157.212234 172.663742,155.885941 174.941467,155.029877 
	C188.007156,150.119263 201.157913,145.430435 214.154572,140.346252 
	C215.810013,139.698669 217.817810,137.180725 217.812958,135.534729 
	C217.790726,127.988815 217.110596,120.444847 216.605789,111.865044 
	C211.479919,114.351875 206.993820,116.599503 202.447189,118.717140 
	C195.905273,121.764114 189.293854,124.662155 182.758484,127.722801 
	C174.159195,131.750015 165.604919,135.873337 156.364716,140.020630 
	C155.852737,140.689697 155.340759,141.358749 154.450287,142.752243 
z"/>
<path fill="#581673" opacity="1.000000" stroke="none" 
	d="
M239.067627,332.328552 
	C239.617233,330.119446 240.881653,328.155792 240.885880,326.189484 
	C240.996811,274.572693 240.986069,222.955582 240.943176,171.338562 
	C240.941681,169.543152 240.395920,167.748199 239.988831,165.559082 
	C240.332413,165.145172 240.791000,165.125229 241.624496,165.624725 
	C241.991257,221.735992 241.983093,277.327820 241.974930,332.919647 
	C241.048355,332.804016 240.121780,332.688416 239.067627,332.328552 
z"/>
<path fill="#A28ED3" opacity="1.000000" stroke="none" 
	d="
M242.371643,332.741089 
	C241.983093,277.327820 241.991257,221.735992 241.962646,165.697113 
	C242.284470,166.351868 242.955826,167.453369 242.956833,168.555511 
	C243.006821,222.567459 243.000015,276.579468 242.988419,330.591461 
	C242.988281,331.248474 242.844879,331.905487 242.371643,332.741089 
z"/>
<path fill="#5B1575" opacity="1.000000" stroke="none" 
	d="
M291.758148,265.066895 
	C292.118042,262.744202 292.916992,260.479889 292.920502,258.214294 
	C292.991699,211.996811 292.968170,165.779190 292.979156,119.561592 
	C292.979858,116.610023 293.176422,113.606842 288.373901,113.981659 
	C289.042358,113.323135 290.132568,112.670929 291.981995,112.069214 
	C293.159912,113.569183 293.907898,115.011444 293.939911,116.469429 
	C294.075195,122.627205 293.996796,128.789658 293.997345,134.950409 
	C294.000946,176.578568 294.029419,218.206802 293.921143,259.834686 
	C293.916656,261.553864 292.630951,263.269714 291.942139,264.987122 
	C291.942139,264.987122 291.826813,265.124664 291.758148,265.066895 
z"/>
<path fill="#9D85CF" opacity="1.000000" stroke="none" 
	d="
M292.123505,265.355957 
	C292.630951,263.269714 293.916656,261.553864 293.921143,259.834686 
	C294.029419,218.206802 294.000946,176.578568 293.997345,134.950409 
	C293.996796,128.789658 294.075195,122.627205 293.939911,116.469429 
	C293.907898,115.011444 293.159912,113.569183 292.311584,112.095764 
	C292.771240,111.692345 293.660583,111.312851 295.005646,110.738914 
	C295.005646,134.410675 295.006348,157.357956 295.005432,180.305237 
	C295.004364,207.418442 295.028564,234.531723 294.933258,261.644592 
	C294.927612,263.255768 296.560516,266.582611 292.123505,265.355957 
z"/>
<path fill="#7657A6" opacity="1.000000" stroke="none" 
	d="
M269.399597,146.993164 
	C269.678864,146.712616 270.240265,146.676620 270.801697,146.640625 
	C270.867676,147.961563 270.990326,149.282440 270.991302,150.603424 
	C271.009857,175.996811 271.042145,201.390289 270.940948,226.783249 
	C270.935760,228.091049 269.761963,229.394211 269.029053,230.410172 
	C269.283325,226.033981 269.929169,221.948624 269.949860,217.860092 
	C270.055267,197.014633 270.010559,176.168320 269.985413,155.322357 
	C269.982178,152.627350 269.787659,149.932571 269.399597,146.993164 
z"/>
<path fill="#7E49A0" opacity="1.000000" stroke="none" 
	d="
M131.883636,125.179008 
	C132.200623,152.425644 132.144470,179.636169 132.129730,207.295074 
	C131.779419,206.146606 131.059036,204.552628 131.045074,202.952499 
	C130.822235,177.389679 130.685516,151.826080 130.577240,126.262466 
	C130.575684,125.890602 131.185837,125.516151 131.883636,125.179008 
z"/>
<path fill="#5B1575" opacity="1.000000" stroke="none" 
	d="
M241.947052,129.948318 
	C241.620636,128.020691 241.021942,126.094559 241.011276,124.165176 
	C240.932190,109.858032 240.979095,95.550224 240.959335,81.242661 
	C240.956894,79.473450 240.794724,77.704453 240.675354,75.309357 
	C237.281235,76.324478 234.507584,77.154022 231.343048,77.978859 
	C234.363251,76.341400 237.774368,74.708664 241.589355,73.603401 
	C241.977844,92.736687 241.962448,111.342506 241.947052,129.948318 
z"/>
<path fill="#A28ED3" opacity="1.000000" stroke="none" 
	d="
M242.279968,130.029510 
	C241.962448,111.342506 241.977844,92.736687 241.959564,73.682495 
	C242.280014,74.657822 242.935120,76.080055 242.942062,77.505447 
	C243.018799,93.234550 242.963928,108.964310 243.050064,124.693321 
	C243.057922,126.126358 243.795319,127.555405 244.634277,129.077972 
	C244.254028,129.483322 243.433456,129.796997 242.279968,130.029510 
z"/>
<path fill="#643D90" opacity="1.000000" stroke="none" 
	d="
M218.875580,173.208069 
	C219.205200,184.626511 219.171677,196.051270 218.967239,207.472946 
	C218.939758,209.008514 218.050705,210.528656 217.255310,211.992538 
	C217.298676,205.933853 217.880798,199.940216 217.923111,193.942764 
	C217.957809,189.024323 217.180527,184.103760 217.110748,179.179199 
	C217.082657,177.197372 217.981705,175.202393 218.875580,173.208069 
z"/>
<path fill="#5B1575" opacity="1.000000" stroke="none" 
	d="
M191.842636,280.990143 
	C191.550400,278.713440 191.063751,276.442291 190.998581,274.159088 
	C190.661926,262.366211 190.433182,250.570282 190.100220,238.359711 
	C190.448608,237.983978 190.863571,238.023926 191.610107,238.565430 
	C191.908691,253.041367 191.875671,267.015747 191.842636,280.990143 
z"/>
<path fill="#A28ED3" opacity="1.000000" stroke="none" 
	d="
M192.156281,281.095978 
	C191.875671,267.015747 191.908691,253.041367 191.919113,238.612839 
	C192.265503,239.553406 192.944427,240.945770 192.955032,242.343201 
	C193.050323,254.904343 193.028229,267.466370 193.063202,280.493591 
	C192.880493,281.039978 192.675201,281.120911 192.156281,281.095978 
z"/>
<path fill="#A28ED3" opacity="1.000000" stroke="none" 
	d="
M191.829773,176.077072 
	C192.042847,175.771164 192.255920,175.465256 192.748138,175.107208 
	C193.249237,184.431412 193.471176,193.807755 193.838806,203.580170 
	C193.318741,203.519302 192.653015,203.062378 191.961273,201.819611 
	C191.900085,192.714890 191.864929,184.395981 191.829773,176.077072 
z"/>
<path fill="#5B1575" opacity="1.000000" stroke="none" 
	d="
M228.632675,78.967674 
	C227.866684,79.607559 226.767426,80.290108 225.300049,80.964363 
	C226.054443,80.307487 227.176926,79.658913 228.632675,78.967674 
z"/>
<path fill="#5B1575" opacity="1.000000" stroke="none" 
	d="
M287.630981,113.961746 
	C287.408203,114.091454 286.824219,114.244209 286.030945,114.244354 
	C286.304382,114.056091 286.787048,114.020439 287.630981,113.961746 
z"/>
<path fill="#5B1575" opacity="1.000000" stroke="none" 
	d="
M224.682617,80.959023 
	C224.507217,81.236961 224.029129,81.558250 223.261749,81.934372 
	C223.441605,81.660263 223.910767,81.331314 224.682617,80.959023 
z"/>
<path fill="#5B1575" opacity="1.000000" stroke="none" 
	d="
M230.689636,77.968750 
	C230.506531,78.249969 230.014725,78.558380 229.229034,78.913750 
	C229.417099,78.639122 229.899017,78.317535 230.689636,77.968750 
z"/>
<path fill="#5B1575" opacity="1.000000" stroke="none" 
	d="
M189.912735,237.679459 
	C189.508102,237.807175 188.968719,237.649063 188.198364,237.324203 
	C188.570923,237.236176 189.174469,237.314896 189.912735,237.679459 
z"/>
<path fill="#5B1575" opacity="1.000000" stroke="none" 
	d="
M222.733902,82.008316 
	C222.837967,82.294525 222.586212,82.424126 222.103516,82.275574 
	C222.136826,82.144852 222.305328,82.096283 222.733902,82.008316 
z"/>
<path fill="#581673" opacity="1.000000" stroke="none" 
	d="
M236.857101,166.144470 
	C236.897751,166.359924 236.647018,166.571426 236.156418,166.870636 
	C236.155106,166.712006 236.371490,166.439407 236.857101,166.144470 
z"/>
<path fill="#581673" opacity="1.000000" stroke="none" 
	d="
M235.726334,166.980164 
	C235.837387,167.265244 235.590530,167.399933 235.107269,167.258453 
	C235.138336,167.126740 235.304184,167.075897 235.726334,166.980164 
z"/>
<path fill="#A28ED3" opacity="1.000000" stroke="none" 
	d="
M193.781708,281.947876 
	C193.434982,281.975494 193.172516,281.715088 192.970016,281.181671 
	C193.308640,281.159058 193.587311,281.409454 193.781708,281.947876 
z"/>
<path fill="#000000" opacity="1.000000" stroke="none" 
	d="
M157.031296,139.955338 
	C165.604919,135.873337 174.159195,131.750015 182.758484,127.722801 
	C189.293854,124.662155 195.905273,121.764114 202.447189,118.717140 
	C206.993820,116.599503 211.479919,114.351875 216.605789,111.865044 
	C217.110596,120.444847 217.790726,127.988815 217.812958,135.534729 
	C217.817810,137.180725 215.810013,139.698669 214.154572,140.346252 
	C201.157913,145.430435 188.007156,150.119263 174.941467,155.029877 
	C172.663742,155.885941 170.562744,157.212234 167.862564,158.835449 
	C167.345001,170.494385 167.345001,181.639191 167.345001,192.698608 
	C165.433899,192.961365 164.295578,193.117874 163.157242,193.274384 
	C161.517059,192.758026 159.876862,192.241684 158.037796,191.074738 
	C157.224991,188.939682 156.093262,187.460556 156.077957,185.969955 
	C155.938141,172.360626 155.955612,158.749084 156.036331,145.138840 
	C156.046585,143.409103 156.684280,141.683075 157.031296,139.955338 
z"/>
<path fill="#9D85CF" opacity="1.000000" stroke="none" 
	d="
M156.697998,139.987976 
	C156.684280,141.683075 156.046585,143.409103 156.036331,145.138840 
	C155.955612,158.749084 155.938141,172.360626 156.077957,185.969955 
	C156.093262,187.460556 157.224991,188.939682 157.798569,190.864227 
	C157.189758,191.193375 156.621277,191.082397 155.628693,190.515137 
	C155.079315,174.048523 154.954041,158.038177 154.828781,142.027817 
	C155.340759,141.358749 155.852737,140.689697 156.697998,139.987976 
z"/>
<path fill="#5B1575" opacity="1.000000" stroke="none" 
	d="
M154.639526,142.390030 
	C154.954041,158.038177 155.079315,174.048523 155.338013,190.515869 
	C155.000473,189.958755 154.117615,188.943512 154.120377,187.930695 
	C154.161423,172.871017 154.319702,157.811676 154.639526,142.390030 
z"/>
<path fill="#A28ED3" opacity="1.000000" stroke="none" 
	d="
M163.455887,193.432297 
	C164.295578,193.117874 165.433899,192.961365 167.345001,192.698608 
	C167.345001,181.639191 167.345001,170.494385 167.753662,159.159149 
	C168.162338,170.666336 168.162338,182.363937 168.162338,194.708649 
	C166.406174,194.263046 165.080353,193.926620 163.455887,193.432297 
z"/>
<path fill="#5B1575" opacity="1.000000" stroke="none" 
	d="
M191.626282,176.427994 
	C191.864929,184.395981 191.900085,192.714890 191.875671,201.497406 
	C191.684998,193.566986 191.553894,185.172958 191.626282,176.427994 
z"/>
</svg>